<mxfile host="app.diagrams.net" modified="2023-10-05T01:23:16.557Z" agent="Mozilla/5.0 (Windows NT 10.0; Win64; x64) AppleWebKit/537.36 (KHTML, like Gecko) Chrome/117.0.0.0 Safari/537.36" etag="SpVF_47epJp6TCgWOP3N" version="22.0.2" type="github">
  <diagram id="C5RBs43oDa-KdzZeNtuy" name="Page-1">
    <mxGraphModel dx="625" dy="345" grid="1" gridSize="10" guides="1" tooltips="1" connect="1" arrows="1" fold="1" page="1" pageScale="1" pageWidth="827" pageHeight="1169" math="0" shadow="0">
      <root>
        <mxCell id="WIyWlLk6GJQsqaUBKTNV-0" />
        <mxCell id="WIyWlLk6GJQsqaUBKTNV-1" parent="WIyWlLk6GJQsqaUBKTNV-0" />
        <mxCell id="XLm6tyVDyXlRxwsTdTl_-1" style="edgeStyle=orthogonalEdgeStyle;rounded=0;orthogonalLoop=1;jettySize=auto;html=1;" edge="1" parent="WIyWlLk6GJQsqaUBKTNV-1" source="XLm6tyVDyXlRxwsTdTl_-0">
          <mxGeometry relative="1" as="geometry">
            <mxPoint x="347" y="269" as="targetPoint" />
          </mxGeometry>
        </mxCell>
        <mxCell id="XLm6tyVDyXlRxwsTdTl_-3" value="serve" style="edgeLabel;html=1;align=center;verticalAlign=middle;resizable=0;points=[];" vertex="1" connectable="0" parent="XLm6tyVDyXlRxwsTdTl_-1">
          <mxGeometry x="-0.0816" y="2" relative="1" as="geometry">
            <mxPoint as="offset" />
          </mxGeometry>
        </mxCell>
        <mxCell id="XLm6tyVDyXlRxwsTdTl_-0" value="pm2&lt;br&gt;(production process manager)" style="rounded=0;whiteSpace=wrap;html=1;fillColor=#dae8fc;strokeColor=#6c8ebf;" vertex="1" parent="WIyWlLk6GJQsqaUBKTNV-1">
          <mxGeometry x="147" y="239" width="120" height="60" as="geometry" />
        </mxCell>
        <mxCell id="XLm6tyVDyXlRxwsTdTl_-2" value="Angular static file (bundle file (main.xxx.js))" style="rounded=0;whiteSpace=wrap;html=1;fillColor=#dae8fc;strokeColor=#6c8ebf;" vertex="1" parent="WIyWlLk6GJQsqaUBKTNV-1">
          <mxGeometry x="347" y="239" width="120" height="60" as="geometry" />
        </mxCell>
        <mxCell id="XLm6tyVDyXlRxwsTdTl_-8" value="" style="edgeStyle=orthogonalEdgeStyle;rounded=0;orthogonalLoop=1;jettySize=auto;html=1;" edge="1" parent="WIyWlLk6GJQsqaUBKTNV-1" source="XLm6tyVDyXlRxwsTdTl_-4" target="XLm6tyVDyXlRxwsTdTl_-7">
          <mxGeometry relative="1" as="geometry" />
        </mxCell>
        <mxCell id="XLm6tyVDyXlRxwsTdTl_-10" value="run" style="edgeLabel;html=1;align=center;verticalAlign=middle;resizable=0;points=[];" vertex="1" connectable="0" parent="XLm6tyVDyXlRxwsTdTl_-8">
          <mxGeometry x="-0.056" y="-2" relative="1" as="geometry">
            <mxPoint as="offset" />
          </mxGeometry>
        </mxCell>
        <mxCell id="XLm6tyVDyXlRxwsTdTl_-4" value="pm2&lt;br&gt;(production process manager)" style="rounded=0;whiteSpace=wrap;html=1;fillColor=#dae8fc;strokeColor=#6c8ebf;" vertex="1" parent="WIyWlLk6GJQsqaUBKTNV-1">
          <mxGeometry x="147" y="359" width="120" height="60" as="geometry" />
        </mxCell>
        <mxCell id="XLm6tyVDyXlRxwsTdTl_-6" value="Angular static file (bundle file (main.xxx.js, main.xxx.js.br))" style="rounded=0;whiteSpace=wrap;html=1;" vertex="1" parent="WIyWlLk6GJQsqaUBKTNV-1">
          <mxGeometry x="647" y="359" width="120" height="60" as="geometry" />
        </mxCell>
        <mxCell id="XLm6tyVDyXlRxwsTdTl_-9" value="" style="edgeStyle=orthogonalEdgeStyle;rounded=0;orthogonalLoop=1;jettySize=auto;html=1;" edge="1" parent="WIyWlLk6GJQsqaUBKTNV-1" source="XLm6tyVDyXlRxwsTdTl_-7" target="XLm6tyVDyXlRxwsTdTl_-6">
          <mxGeometry relative="1" as="geometry" />
        </mxCell>
        <mxCell id="XLm6tyVDyXlRxwsTdTl_-11" value="serve&lt;br&gt;(brotli compression + cache)" style="edgeLabel;html=1;align=center;verticalAlign=middle;resizable=0;points=[];" vertex="1" connectable="0" parent="XLm6tyVDyXlRxwsTdTl_-9">
          <mxGeometry x="-0.1078" y="-1" relative="1" as="geometry">
            <mxPoint as="offset" />
          </mxGeometry>
        </mxCell>
        <mxCell id="XLm6tyVDyXlRxwsTdTl_-7" value="server.js&lt;br&gt;(express,&amp;nbsp;express-static-gzip, path, mime&lt;span style=&quot;background-color: initial;&quot;&gt;)&amp;nbsp;&lt;/span&gt;" style="rounded=0;whiteSpace=wrap;html=1;" vertex="1" parent="WIyWlLk6GJQsqaUBKTNV-1">
          <mxGeometry x="347" y="359" width="120" height="60" as="geometry" />
        </mxCell>
        <mxCell id="XLm6tyVDyXlRxwsTdTl_-12" value="Reduce 75% bundle size with Brotli" style="text;html=1;align=center;verticalAlign=middle;resizable=0;points=[];autosize=1;strokeColor=none;fillColor=none;" vertex="1" parent="WIyWlLk6GJQsqaUBKTNV-1">
          <mxGeometry x="357" y="319" width="210" height="30" as="geometry" />
        </mxCell>
        <mxCell id="XLm6tyVDyXlRxwsTdTl_-17" value="" style="rounded=0;whiteSpace=wrap;html=1;fillColor=none;" vertex="1" parent="WIyWlLk6GJQsqaUBKTNV-1">
          <mxGeometry x="60" y="210" width="730" height="271" as="geometry" />
        </mxCell>
        <mxCell id="XLm6tyVDyXlRxwsTdTl_-19" value="&lt;font style=&quot;font-size: 18px;&quot;&gt;&lt;b&gt;Node&lt;/b&gt;&lt;/font&gt;" style="text;html=1;align=center;verticalAlign=middle;resizable=0;points=[];autosize=1;strokeColor=none;fillColor=none;" vertex="1" parent="WIyWlLk6GJQsqaUBKTNV-1">
          <mxGeometry x="390" y="165" width="70" height="40" as="geometry" />
        </mxCell>
        <mxCell id="XLm6tyVDyXlRxwsTdTl_-24" value="" style="image;aspect=fixed;perimeter=ellipsePerimeter;html=1;align=center;shadow=0;dashed=0;fontColor=#4277BB;labelBackgroundColor=default;fontSize=12;spacingTop=3;image=img/lib/ibm/users/browser.svg;" vertex="1" parent="WIyWlLk6GJQsqaUBKTNV-1">
          <mxGeometry x="360" y="650" width="130" height="130" as="geometry" />
        </mxCell>
        <mxCell id="XLm6tyVDyXlRxwsTdTl_-27" value="" style="endArrow=classic;html=1;rounded=0;entryX=0.5;entryY=0;entryDx=0;entryDy=0;exitX=0.5;exitY=1;exitDx=0;exitDy=0;" edge="1" parent="WIyWlLk6GJQsqaUBKTNV-1" source="XLm6tyVDyXlRxwsTdTl_-17" target="XLm6tyVDyXlRxwsTdTl_-24">
          <mxGeometry width="50" height="50" relative="1" as="geometry">
            <mxPoint x="260" y="520" as="sourcePoint" />
            <mxPoint x="310" y="470" as="targetPoint" />
          </mxGeometry>
        </mxCell>
        <mxCell id="XLm6tyVDyXlRxwsTdTl_-28" value="&lt;ul style=&quot;margin: 0px; padding: 0px 0px 0px 2rem; box-sizing: inherit; list-style: none; min-width: 0px; color: rgb(54, 54, 54); font-family: Roboto, Arial, Helvetica, sans-serif; font-size: 18px; text-align: start;&quot;&gt;&lt;li style=&quot;margin: 0px 0px 1rem; padding: 0px 0px 0px 2rem; box-sizing: inherit; min-width: 0px; position: relative;&quot;&gt;Brotli vs Gzip:&lt;/li&gt;&lt;li style=&quot;margin: 0px 0px 1rem; padding: 0px 0px 0px 2rem; box-sizing: inherit; min-width: 0px; position: relative;&quot;&gt;14% smaller JavaScript files&lt;/li&gt;&lt;li style=&quot;margin: 0px 0px 1rem; padding: 0px 0px 0px 2rem; box-sizing: inherit; min-width: 0px; position: relative;&quot;&gt;21% smaller HTML files&lt;/li&gt;&lt;li style=&quot;margin: 0px 0px 1rem; padding: 0px 0px 0px 2rem; box-sizing: inherit; min-width: 0px; position: relative;&quot;&gt;17% smaller CSS files&lt;/li&gt;&lt;/ul&gt;" style="text;html=1;align=center;verticalAlign=middle;resizable=0;points=[];autosize=1;strokeColor=none;fillColor=none;" vertex="1" parent="WIyWlLk6GJQsqaUBKTNV-1">
          <mxGeometry x="490" y="495" width="310" height="160" as="geometry" />
        </mxCell>
      </root>
    </mxGraphModel>
  </diagram>
</mxfile>
